<svg width="346" height="149" viewBox="0 0 346 149" fill="none" xmlns="http://www.w3.org/2000/svg">
<path d="M220.148 9.39062C220.148 10.2422 219.957 11 219.574 11.6641C219.199 12.3281 218.691 12.8477 218.051 13.2227C218.809 13.6133 219.402 14.1758 219.832 14.9102C220.262 15.6367 220.477 16.4648 220.477 17.3945C220.477 18.8633 220.059 20.0391 219.223 20.9219C218.395 21.7969 217.293 22.2344 215.918 22.2344C214.543 22.2344 213.438 21.7969 212.602 20.9219C211.773 20.0391 211.359 18.8633 211.359 17.3945C211.359 16.457 211.57 15.6211 211.992 14.8867C212.422 14.1445 213.004 13.5859 213.738 13.2109C213.098 12.8359 212.594 12.3203 212.227 11.6641C211.859 11 211.676 10.2422 211.676 9.39062C211.676 7.95312 212.062 6.8125 212.836 5.96875C213.617 5.125 214.645 4.70312 215.918 4.70312C217.184 4.70312 218.203 5.12109 218.977 5.95703C219.758 6.79297 220.148 7.9375 220.148 9.39062ZM218.402 17.3477C218.402 16.3711 218.172 15.5898 217.711 15.0039C217.25 14.4102 216.645 14.1133 215.895 14.1133C215.129 14.1133 214.523 14.4102 214.078 15.0039C213.641 15.5977 213.422 16.3789 213.422 17.3477C213.422 18.332 213.637 19.0977 214.066 19.6445C214.504 20.1914 215.121 20.4648 215.918 20.4648C216.715 20.4648 217.328 20.1914 217.758 19.6445C218.188 19.0977 218.402 18.332 218.402 17.3477ZM218.086 9.42578C218.086 8.55859 217.883 7.85156 217.477 7.30469C217.07 6.75781 216.551 6.48438 215.918 6.48438C215.254 6.48438 214.727 6.75391 214.336 7.29297C213.945 7.83203 213.75 8.54297 213.75 9.42578C213.75 10.3164 213.949 11.0234 214.348 11.5469C214.746 12.0703 215.27 12.332 215.918 12.332C216.582 12.332 217.109 12.0664 217.5 11.5352C217.891 11.0039 218.086 10.3008 218.086 9.42578ZM224.674 13.4453L225.413 4.9375H232.83V6.94141H227.159L226.76 11.5938C227.463 11.1016 228.221 10.8555 229.034 10.8555C230.362 10.8555 231.405 11.3711 232.163 12.4023C232.92 13.4336 233.299 14.8203 233.299 16.5625C233.299 18.3281 232.885 19.7148 232.057 20.7227C231.237 21.7305 230.108 22.2344 228.67 22.2344C227.389 22.2344 226.346 21.8164 225.541 20.9805C224.737 20.1445 224.276 18.9883 224.159 17.5117H226.104C226.221 18.4883 226.498 19.2266 226.936 19.7266C227.381 20.2188 227.959 20.4648 228.67 20.4648C229.475 20.4648 230.104 20.1172 230.557 19.4219C231.01 18.7188 231.237 17.7734 231.237 16.5859C231.237 15.4688 230.991 14.5586 230.498 13.8555C230.014 13.1523 229.358 12.8008 228.53 12.8008C227.842 12.8008 227.291 12.9805 226.877 13.3398L226.327 13.8906L224.674 13.4453ZM236.173 8.21875C236.173 7.20312 236.446 6.36328 236.993 5.69922C237.548 5.02734 238.266 4.69141 239.149 4.69141C240.024 4.69141 240.739 5.01953 241.294 5.67578C241.856 6.33203 242.138 7.19531 242.138 8.26562V9.12109C242.138 10.1445 241.86 10.9844 241.305 11.6406C240.759 12.2969 240.048 12.625 239.173 12.625C238.298 12.625 237.579 12.2969 237.016 11.6406C236.454 10.9844 236.173 10.1211 236.173 9.05078V8.21875ZM237.684 9.12109C237.684 9.74609 237.821 10.2539 238.095 10.6445C238.368 11.0273 238.727 11.2188 239.173 11.2188C239.602 11.2188 239.95 11.0312 240.216 10.6562C240.489 10.2734 240.626 9.74609 240.626 9.07422V8.21875C240.626 7.58594 240.489 7.07813 240.216 6.69531C239.942 6.30469 239.587 6.10938 239.149 6.10938C238.704 6.10938 238.348 6.30469 238.083 6.69531C237.817 7.08594 237.684 7.60547 237.684 8.25391V9.12109ZM243.063 17.8164C243.063 16.793 243.341 15.9531 243.895 15.2969C244.45 14.6328 245.165 14.3008 246.04 14.3008C246.915 14.3008 247.634 14.6289 248.196 15.2852C248.759 15.9414 249.04 16.8125 249.04 17.8984V18.7305C249.04 19.7617 248.759 20.6055 248.196 21.2617C247.634 21.918 246.923 22.2461 246.063 22.2461C245.188 22.2461 244.47 21.918 243.907 21.2617C243.345 20.6055 243.063 19.7422 243.063 18.6719V17.8164ZM244.575 18.7305C244.575 19.3633 244.712 19.875 244.985 20.2656C245.259 20.6484 245.618 20.8398 246.063 20.8398C246.501 20.8398 246.852 20.6445 247.118 20.2539C247.384 19.8633 247.516 19.3438 247.516 18.6953V17.8164C247.516 17.1836 247.38 16.6758 247.106 16.293C246.833 15.9102 246.477 15.7188 246.04 15.7188C245.61 15.7188 245.259 15.9102 244.985 16.293C244.712 16.668 244.575 17.1875 244.575 17.8516V18.7305ZM239.595 20.7109L238.458 19.9375L245.454 6.60156L246.602 7.375L239.595 20.7109Z" fill="#242121"/>
<path d="M194.607 9.23264C191.333 12.299 190.201 15.0469 183.188 16.5457C174.555 18.392 165.962 13.9867 161.708 10.3747C160.24 9.12805 156.68 8.88833 155.309 10.3747C149.3 16.89 135.991 15.299 130.312 9.01111C128.916 7.46431 124.195 7.74041 123.615 9.51004C120.424 19.2573 106.096 20.2889 96.5007 13.2241C97.548 11.3219 92.0846 10.0272 90.5951 11.889C82.5402 21.9605 66.8144 20.8353 57.6871 11.8475C56.103 10.2877 52.5542 10.8347 51.5308 12.3061C44.1129 22.9759 32.5594 17.9002 26.076 10.556C24.8133 9.1248 21.212 9.62047 20.4508 10.975C16.9077 17.283 11.0705 18.4608 1.23659 20.0927C-0.615315 20.4007 -0.329268 22.2327 1.70725 22.078C12.9748 21.2218 19.1288 20.0791 23.734 15.2958C33.1953 23.7177 46.4036 25.438 55.2665 16.5762C66.7586 24.7767 85.2194 25.7115 94.3661 15.9552C104.526 23.8334 121.565 23.4455 128.388 14.8605C137.19 20.7794 150.002 21.611 158.866 14.9872C172.057 22.5477 199.036 24.2401 199.997 10.0668C200.117 8.37641 196.055 7.87554 194.607 9.23264Z" fill="#00B2A0"/>
<path d="M7.38965 39H6.61035V29.7852H1.98926V39H1.20996V29.0469H7.38965V39ZM15.2699 35.6504C15.2699 36.7897 15.0717 37.6556 14.6752 38.248C14.2787 38.8405 13.6863 39.1367 12.8979 39.1367C12.0411 39.1367 11.4008 38.7949 10.977 38.1113V41.8438H10.225V31.6035H10.9223L10.9564 32.6152C11.3939 31.8496 12.0342 31.4668 12.8773 31.4668C13.6749 31.4668 14.2719 31.7493 14.6684 32.3145C15.0648 32.8796 15.2654 33.7432 15.2699 34.9053V35.6504ZM14.5111 34.96C14.5111 34.012 14.363 33.3148 14.0668 32.8682C13.7751 32.4215 13.3171 32.1982 12.6928 32.1982C11.8907 32.1982 11.3188 32.6061 10.977 33.4219V37.3184C11.3188 38.0612 11.8952 38.4326 12.7064 38.4326C13.3171 38.4326 13.7683 38.2093 14.06 37.7627C14.3562 37.3161 14.5066 36.6279 14.5111 35.6982V34.96ZM21.7078 31.6035H22.4666V39H21.7078V32.9502L18.4471 39H17.6883V31.6035H18.4471V37.6602L21.7078 31.6035ZM27.592 39.1367C26.7215 39.1367 26.0402 38.8519 25.548 38.2822C25.0559 37.7126 24.8052 36.9014 24.7961 35.8486V34.9463C24.7961 33.8617 25.0331 33.0117 25.507 32.3965C25.981 31.7767 26.6327 31.4668 27.4621 31.4668C28.2642 31.4668 28.8749 31.7288 29.2941 32.2529C29.718 32.777 29.9344 33.5791 29.9436 34.6592V35.3701H25.548V35.7871C25.548 36.6348 25.7281 37.2887 26.0881 37.749C26.4527 38.2093 26.9654 38.4395 27.6262 38.4395C28.3553 38.4395 28.9455 38.1729 29.3967 37.6396L29.7932 38.1455C29.3101 38.8063 28.5764 39.1367 27.592 39.1367ZM27.4621 32.1777C26.8651 32.1777 26.4048 32.3896 26.0812 32.8135C25.7622 33.2327 25.5868 33.848 25.5549 34.6592H29.1848V34.4609C29.1483 32.9388 28.5741 32.1777 27.4621 32.1777ZM34.1461 34.5908L35.7662 31.6035H36.6617L34.5631 35.2334L36.7437 39H35.8551L34.1529 35.8896L32.4439 39H31.5553L33.7291 35.2334L31.6373 31.6035H32.526L34.1461 34.5908ZM42.6895 39C42.6211 38.763 42.5755 38.4212 42.5527 37.9746C42.3249 38.3438 42.0309 38.6309 41.6709 38.8359C41.3154 39.0365 40.9281 39.1367 40.5088 39.1367C39.8708 39.1367 39.374 38.9567 39.0186 38.5967C38.6631 38.2367 38.4854 37.724 38.4854 37.0586C38.4854 36.334 38.7314 35.7598 39.2236 35.3359C39.7204 34.9121 40.404 34.6979 41.2744 34.6934H42.5459V33.6611C42.5459 33.1325 42.4137 32.7542 42.1494 32.5264C41.8896 32.2939 41.5068 32.1777 41.001 32.1777C40.5316 32.1777 40.1465 32.3145 39.8457 32.5879C39.5449 32.8613 39.3945 33.2145 39.3945 33.6475L38.6357 33.6406C38.6357 33.0345 38.8636 32.5218 39.3193 32.1025C39.7751 31.6787 40.347 31.4668 41.0352 31.4668C41.778 31.4668 42.3408 31.6536 42.7236 32.0273C43.1064 32.401 43.2979 32.9456 43.2979 33.6611V37.291C43.2979 38.0156 43.3639 38.5579 43.4961 38.918V39H42.6895ZM40.6045 38.4053C41.0511 38.4053 41.4453 38.2891 41.7871 38.0566C42.1335 37.8242 42.3864 37.5143 42.5459 37.127V35.3291H41.3428C40.6501 35.3382 40.1283 35.4932 39.7773 35.7939C39.4264 36.0902 39.251 36.4912 39.251 36.9971C39.251 37.9359 39.7021 38.4053 40.6045 38.4053ZM50.809 31.6035V39H50.0502V32.3213H47.5893L47.4799 35.0625C47.4206 36.5117 47.2566 37.5257 46.9877 38.1045C46.7234 38.6787 46.2927 38.9772 45.6957 39H45.3471V38.2549L45.5658 38.248C45.9577 38.2298 46.2357 38.002 46.3998 37.5645C46.5639 37.1224 46.6732 36.3454 46.7279 35.2334L46.8578 31.6035H50.809ZM57.575 31.6035H58.3338V39H57.575V32.9502L54.3143 39H53.5555V31.6035H54.3143V37.6602L57.575 31.6035ZM64.8453 39V31.6035H67.1559C67.9443 31.6035 68.5527 31.7699 68.9811 32.1025C69.4094 32.4352 69.6236 32.9274 69.6236 33.5791C69.6236 33.9482 69.5279 34.2786 69.3365 34.5703C69.1451 34.8574 68.8671 35.0671 68.5025 35.1992C68.9218 35.2904 69.2522 35.5 69.4938 35.8281C69.7398 36.1517 69.8629 36.5254 69.8629 36.9492C69.8629 37.6009 69.6624 38.1045 69.2613 38.46C68.8603 38.8109 68.302 38.9909 67.5865 39H64.8453ZM65.5973 35.6025V38.3027H67.5455C68.0514 38.3027 68.4387 38.1865 68.7076 37.9541C68.9765 37.7171 69.1109 37.3776 69.1109 36.9355C69.1109 36.5254 68.9765 36.2018 68.7076 35.9648C68.4387 35.7233 68.0514 35.6025 67.5455 35.6025H65.5973ZM65.5973 34.9053H67.2037C68.3111 34.9053 68.8648 34.4723 68.8648 33.6064C68.8648 32.7679 68.3294 32.3372 67.2584 32.3145H65.5973V34.9053ZM76.6494 32.3145H74.4209V39H73.6621V32.3145H71.5156V31.6035H76.6494V32.3145ZM78.0629 34.9258C78.0629 33.8594 78.3044 33.0163 78.7875 32.3965C79.2706 31.7767 79.9291 31.4668 80.7631 31.4668C81.6016 31.4668 82.2602 31.7721 82.7387 32.3828C83.2217 32.9935 83.4656 33.8343 83.4701 34.9053V35.6914C83.4701 36.776 83.2263 37.6214 82.7387 38.2275C82.2556 38.8337 81.6016 39.1367 80.7768 39.1367C79.9519 39.1367 79.2979 38.8405 78.8148 38.248C78.3318 37.6556 78.0811 36.8398 78.0629 35.8008V34.9258ZM78.8285 35.6914C78.8285 36.5436 78.9994 37.2135 79.3412 37.7012C79.6876 38.1888 80.1661 38.4326 80.7768 38.4326C81.4011 38.4326 81.8773 38.1979 82.2055 37.7285C82.5381 37.2591 82.7068 36.5869 82.7113 35.7119V34.9258C82.7113 34.0736 82.5381 33.4036 82.1918 32.916C81.8454 32.4238 81.3692 32.1777 80.7631 32.1777C80.1752 32.1777 79.7081 32.417 79.3617 32.8955C79.0154 33.374 78.8376 34.0326 78.8285 34.8711V35.6914ZM90.8719 35.6504C90.8719 36.7897 90.6736 37.6556 90.2771 38.248C89.8807 38.8405 89.2882 39.1367 88.4998 39.1367C87.643 39.1367 87.0027 38.7949 86.5789 38.1113V41.8438H85.827V31.6035H86.5242L86.5584 32.6152C86.9959 31.8496 87.6362 31.4668 88.4793 31.4668C89.2768 31.4668 89.8738 31.7493 90.2703 32.3145C90.6668 32.8796 90.8673 33.7432 90.8719 34.9053V35.6504ZM90.1131 34.96C90.1131 34.012 89.965 33.3148 89.6687 32.8682C89.3771 32.4215 88.9191 32.1982 88.2947 32.1982C87.4926 32.1982 86.9207 32.6061 86.5789 33.4219V37.3184C86.9207 38.0612 87.4972 38.4326 88.3084 38.4326C88.9191 38.4326 89.3702 38.2093 89.6619 37.7627C89.9581 37.3161 90.1085 36.6279 90.1131 35.6982V34.96ZM92.9484 34.9258C92.9484 33.8594 93.19 33.0163 93.673 32.3965C94.1561 31.7767 94.8147 31.4668 95.6486 31.4668C96.4872 31.4668 97.1457 31.7721 97.6242 32.3828C98.1073 32.9935 98.3511 33.8343 98.3557 34.9053V35.6914C98.3557 36.776 98.1119 37.6214 97.6242 38.2275C97.1411 38.8337 96.4872 39.1367 95.6623 39.1367C94.8374 39.1367 94.1835 38.8405 93.7004 38.248C93.2173 37.6556 92.9667 36.8398 92.9484 35.8008V34.9258ZM93.7141 35.6914C93.7141 36.5436 93.885 37.2135 94.2268 37.7012C94.5731 38.1888 95.0516 38.4326 95.6623 38.4326C96.2867 38.4326 96.7629 38.1979 97.091 37.7285C97.4237 37.2591 97.5923 36.5869 97.5969 35.7119V34.9258C97.5969 34.0736 97.4237 33.4036 97.0773 32.916C96.731 32.4238 96.2548 32.1777 95.6486 32.1777C95.0607 32.1777 94.5936 32.417 94.2473 32.8955C93.9009 33.374 93.7232 34.0326 93.7141 34.8711V35.6914ZM104.787 31.6035H105.546V39H104.787V32.9502L101.526 39H100.767V31.6035H101.526V37.6602L104.787 31.6035ZM105.115 28.9375C105.115 29.457 104.937 29.8809 104.582 30.209C104.226 30.5371 103.745 30.7012 103.139 30.7012C102.542 30.7012 102.064 30.5394 101.704 30.2158C101.344 29.8877 101.164 29.4616 101.164 28.9375H101.861C101.861 29.3021 101.968 29.5869 102.182 29.792C102.401 29.9971 102.72 30.0996 103.139 30.0996C103.536 30.0996 103.848 29.9971 104.076 29.792C104.304 29.5869 104.418 29.3021 104.418 28.9375H105.115ZM117.02 35.6504C117.02 36.7897 116.822 37.6556 116.425 38.248C116.029 38.8405 115.436 39.1367 114.648 39.1367C113.791 39.1367 113.151 38.7949 112.727 38.1113V41.8438H111.975V31.6035H112.672L112.706 32.6152C113.144 31.8496 113.784 31.4668 114.627 31.4668C115.425 31.4668 116.022 31.7493 116.418 32.3145C116.815 32.8796 117.015 33.7432 117.02 34.9053V35.6504ZM116.261 34.96C116.261 34.012 116.113 33.3148 115.817 32.8682C115.525 32.4215 115.067 32.1982 114.443 32.1982C113.641 32.1982 113.069 32.6061 112.727 33.4219V37.3184C113.069 38.0612 113.645 38.4326 114.456 38.4326C115.067 38.4326 115.518 38.2093 115.81 37.7627C116.106 37.3161 116.257 36.6279 116.261 35.6982V34.96ZM123.294 39C123.225 38.763 123.18 38.4212 123.157 37.9746C122.929 38.3438 122.635 38.6309 122.275 38.8359C121.92 39.0365 121.532 39.1367 121.113 39.1367C120.475 39.1367 119.978 38.9567 119.623 38.5967C119.267 38.2367 119.09 37.724 119.09 37.0586C119.09 36.334 119.336 35.7598 119.828 35.3359C120.325 34.9121 121.008 34.6979 121.879 34.6934H123.15V33.6611C123.15 33.1325 123.018 32.7542 122.754 32.5264C122.494 32.2939 122.111 32.1777 121.605 32.1777C121.136 32.1777 120.751 32.3145 120.45 32.5879C120.149 32.8613 119.999 33.2145 119.999 33.6475L119.24 33.6406C119.24 33.0345 119.468 32.5218 119.924 32.1025C120.379 31.6787 120.951 31.4668 121.639 31.4668C122.382 31.4668 122.945 31.6536 123.328 32.0273C123.711 32.401 123.902 32.9456 123.902 33.6611V37.291C123.902 38.0156 123.968 38.5579 124.1 38.918V39H123.294ZM121.209 38.4053C121.655 38.4053 122.05 38.2891 122.391 38.0566C122.738 37.8242 122.991 37.5143 123.15 37.127V35.3291H121.947C121.254 35.3382 120.733 35.4932 120.382 35.7939C120.031 36.0902 119.855 36.4912 119.855 36.9971C119.855 37.9359 120.306 38.4053 121.209 38.4053ZM130.176 33.5654C130.176 33.1234 130.042 32.7816 129.773 32.54C129.508 32.2985 129.139 32.1777 128.665 32.1777C128.228 32.1777 127.859 32.3167 127.558 32.5947C127.257 32.8682 127.107 33.2054 127.107 33.6064H126.355C126.355 32.9867 126.578 32.4762 127.025 32.0752C127.471 31.6742 128.018 31.4736 128.665 31.4736C129.381 31.4736 129.937 31.6582 130.333 32.0273C130.734 32.3919 130.935 32.9069 130.935 33.5723C130.935 33.9277 130.844 34.249 130.661 34.5361C130.479 34.8232 130.215 35.0465 129.868 35.2061C130.657 35.4795 131.051 36.0674 131.051 36.9697C131.051 37.6305 130.835 38.1569 130.402 38.5488C129.969 38.9362 129.39 39.1299 128.665 39.1299C127.968 39.1299 127.391 38.9225 126.936 38.5078C126.48 38.0931 126.252 37.5508 126.252 36.8809H127.011C127.011 37.3184 127.168 37.6875 127.483 37.9883C127.802 38.2845 128.196 38.4326 128.665 38.4326C129.18 38.4326 129.579 38.3027 129.862 38.043C130.144 37.7786 130.285 37.4255 130.285 36.9834C130.285 36.4912 130.153 36.1357 129.889 35.917C129.629 35.6982 129.233 35.5889 128.699 35.5889H127.729V34.8643H128.775C129.709 34.846 130.176 34.4131 130.176 33.5654Z" fill="#242121"/>
<path d="M265.191 67.7109C264.363 68.7656 263.395 69.293 262.285 69.293C261.043 69.293 260.055 68.7695 259.32 67.7227C258.586 66.6758 258.219 65.3047 258.219 63.6094C258.219 61.8281 258.617 60.3984 259.414 59.3203C260.219 58.2422 261.312 57.7031 262.695 57.7031C264.133 57.7031 265.254 58.3281 266.059 59.5781C266.871 60.8203 267.277 62.543 267.277 64.7461V65.3906C267.277 67.2812 267.133 68.8125 266.844 69.9844C266.562 71.1562 266.145 72.1016 265.59 72.8203C265.035 73.5391 264.328 74.0859 263.469 74.4609C262.609 74.8281 261.535 75.0117 260.246 75.0117V73.1836H260.609C262.078 73.1523 263.191 72.707 263.949 71.8477C264.715 70.9805 265.129 69.6016 265.191 67.7109ZM262.637 67.5C263.137 67.5 263.625 67.293 264.102 66.8789C264.578 66.457 264.949 65.9062 265.215 65.2266V64.3125C265.215 62.8984 264.969 61.7461 264.477 60.8555C263.984 59.957 263.391 59.5078 262.695 59.5078C261.945 59.5078 261.348 59.8789 260.902 60.6211C260.465 61.3555 260.246 62.3125 260.246 63.4922C260.246 64.6719 260.461 65.6367 260.891 66.3867C261.32 67.1289 261.902 67.5 262.637 67.5ZM271.674 66.4453L272.413 57.9375H279.83V59.9414H274.159L273.76 64.5938C274.463 64.1016 275.221 63.8555 276.034 63.8555C277.362 63.8555 278.405 64.3711 279.163 65.4023C279.92 66.4336 280.299 67.8203 280.299 69.5625C280.299 71.3281 279.885 72.7148 279.057 73.7227C278.237 74.7305 277.108 75.2344 275.67 75.2344C274.389 75.2344 273.346 74.8164 272.541 73.9805C271.737 73.1445 271.276 71.9883 271.159 70.5117H273.104C273.221 71.4883 273.498 72.2266 273.936 72.7266C274.381 73.2188 274.959 73.4648 275.67 73.4648C276.475 73.4648 277.104 73.1172 277.557 72.4219C278.01 71.7188 278.237 70.7734 278.237 69.5859C278.237 68.4688 277.991 67.5586 277.498 66.8555C277.014 66.1523 276.358 65.8008 275.53 65.8008C274.842 65.8008 274.291 65.9805 273.877 66.3398L273.327 66.8906L271.674 66.4453ZM283.173 61.2188C283.173 60.2031 283.446 59.3633 283.993 58.6992C284.548 58.0273 285.266 57.6914 286.149 57.6914C287.024 57.6914 287.739 58.0195 288.294 58.6758C288.856 59.332 289.138 60.1953 289.138 61.2656V62.1211C289.138 63.1445 288.86 63.9844 288.305 64.6406C287.759 65.2969 287.048 65.625 286.173 65.625C285.298 65.625 284.579 65.2969 284.016 64.6406C283.454 63.9844 283.173 63.1211 283.173 62.0508V61.2188ZM284.684 62.1211C284.684 62.7461 284.821 63.2539 285.095 63.6445C285.368 64.0273 285.727 64.2188 286.173 64.2188C286.602 64.2188 286.95 64.0312 287.216 63.6562C287.489 63.2734 287.626 62.7461 287.626 62.0742V61.2188C287.626 60.5859 287.489 60.0781 287.216 59.6953C286.942 59.3047 286.587 59.1094 286.149 59.1094C285.704 59.1094 285.348 59.3047 285.083 59.6953C284.817 60.0859 284.684 60.6055 284.684 61.2539V62.1211ZM290.063 70.8164C290.063 69.793 290.341 68.9531 290.895 68.2969C291.45 67.6328 292.165 67.3008 293.04 67.3008C293.915 67.3008 294.634 67.6289 295.196 68.2852C295.759 68.9414 296.04 69.8125 296.04 70.8984V71.7305C296.04 72.7617 295.759 73.6055 295.196 74.2617C294.634 74.918 293.923 75.2461 293.063 75.2461C292.188 75.2461 291.47 74.918 290.907 74.2617C290.345 73.6055 290.063 72.7422 290.063 71.6719V70.8164ZM291.575 71.7305C291.575 72.3633 291.712 72.875 291.985 73.2656C292.259 73.6484 292.618 73.8398 293.063 73.8398C293.501 73.8398 293.852 73.6445 294.118 73.2539C294.384 72.8633 294.516 72.3438 294.516 71.6953V70.8164C294.516 70.1836 294.38 69.6758 294.106 69.293C293.833 68.9102 293.477 68.7188 293.04 68.7188C292.61 68.7188 292.259 68.9102 291.985 69.293C291.712 69.668 291.575 70.1875 291.575 70.8516V71.7305ZM286.595 73.7109L285.458 72.9375L292.454 59.6016L293.602 60.375L286.595 73.7109Z" fill="#242121"/>
<path d="M240.34 62.2326C236.296 65.299 234.898 68.0469 226.237 69.5457C215.576 71.392 204.963 66.9867 199.71 63.3747C197.897 62.128 193.5 61.8883 191.807 63.3747C184.385 69.89 167.949 68.299 160.936 62.0111C159.212 60.4643 153.381 60.7404 152.664 62.51C148.723 72.2573 131.029 73.2889 119.178 66.2241C120.472 64.3219 113.724 63.0272 111.885 64.889C101.937 74.9605 82.5158 73.8353 71.2436 64.8475C69.2872 63.2877 64.9044 63.8347 63.6405 65.3061C54.4795 75.9759 40.2108 70.9002 32.2038 63.556C30.6444 62.1248 26.1969 62.6205 25.2567 63.975C20.881 70.283 13.672 71.4608 1.52718 73.0927C-0.759914 73.4007 -0.406646 75.2327 2.10846 75.078C16.0239 74.2218 23.6241 73.0791 29.3116 68.2958C40.9962 76.7177 57.3084 78.438 68.2541 69.5762C82.4468 77.7767 105.246 78.7115 116.542 68.9552C129.09 76.8334 150.132 76.4455 158.559 67.8605C169.43 73.7794 185.252 74.611 196.199 67.9872C212.49 75.5477 245.809 77.2401 246.997 63.0668C247.145 61.3764 242.128 60.8755 240.34 62.2326Z" fill="#00B2A0"/>
<path d="M7.41699 92H6.63086V87.2354H1.95508V92H1.17578V82.0469H1.95508V86.5107H6.63086V82.0469H7.41699V92ZM14.1352 92C14.0668 91.763 14.0212 91.4212 13.9984 90.9746C13.7706 91.3438 13.4766 91.6309 13.1166 91.8359C12.7611 92.0365 12.3738 92.1367 11.9545 92.1367C11.3165 92.1367 10.8197 91.9567 10.4643 91.5967C10.1088 91.2367 9.93106 90.724 9.93106 90.0586C9.93106 89.334 10.1771 88.7598 10.6693 88.3359C11.1661 87.9121 11.8497 87.6979 12.7201 87.6934H13.9916V86.6611C13.9916 86.1325 13.8594 85.7542 13.5951 85.5264C13.3354 85.2939 12.9525 85.1777 12.4467 85.1777C11.9773 85.1777 11.5922 85.3145 11.2914 85.5879C10.9906 85.8613 10.8402 86.2145 10.8402 86.6475L10.0814 86.6406C10.0814 86.0345 10.3093 85.5218 10.765 85.1025C11.2208 84.6787 11.7927 84.4668 12.4809 84.4668C13.2237 84.4668 13.7865 84.6536 14.1693 85.0273C14.5521 85.401 14.7436 85.9456 14.7436 86.6611V90.291C14.7436 91.0156 14.8096 91.5579 14.9418 91.918V92H14.1352ZM12.0502 91.4053C12.4968 91.4053 12.891 91.2891 13.2328 91.0566C13.5792 90.8242 13.8321 90.5143 13.9916 90.127V88.3291H12.7885C12.0958 88.3382 11.574 88.4932 11.223 88.7939C10.8721 89.0902 10.6967 89.4912 10.6967 89.9971C10.6967 90.9359 11.1479 91.4053 12.0502 91.4053ZM19.2742 90.749L21.0379 84.6035H21.8514L19.2469 93.1826L19.1033 93.5928C18.7524 94.5225 18.2146 94.9873 17.49 94.9873C17.3169 94.9873 17.1346 94.9554 16.9432 94.8916L16.9363 94.1943C17.0411 94.2262 17.1574 94.2422 17.285 94.2422C17.6131 94.2422 17.882 94.1442 18.0916 93.9482C18.3012 93.7523 18.4744 93.4355 18.6111 92.998L18.9256 91.9521L16.6014 84.6035H17.4354L19.2742 90.749ZM28.2482 92H27.4826V88.9238C26.9449 89.1517 26.4162 89.2656 25.8967 89.2656C25.0673 89.2656 24.4634 89.0446 24.0852 88.6025C23.7115 88.1559 23.5223 87.4609 23.5178 86.5176V84.6035H24.2766V86.5723C24.2857 87.2832 24.4133 87.7913 24.6594 88.0967C24.91 88.402 25.3225 88.5547 25.8967 88.5547C26.4162 88.5365 26.9449 88.4225 27.4826 88.2129V84.6035H28.2482V92ZM35.0074 84.6035H35.7662V92H35.0074V85.9502L31.7467 92H30.9879V84.6035H31.7467V90.6602L35.0074 84.6035ZM43.291 84.6035V92H42.5322V85.3213H40.0713L39.9619 88.0625C39.9027 89.5117 39.7386 90.5257 39.4697 91.1045C39.2054 91.6787 38.7747 91.9772 38.1777 92H37.8291V91.2549L38.0479 91.248C38.4398 91.2298 38.7178 91.002 38.8818 90.5645C39.0459 90.1224 39.1553 89.3454 39.21 88.2334L39.3398 84.6035H43.291ZM50.057 84.6035H50.8158V92H50.057V85.9502L46.7963 92H46.0375V84.6035H46.7963V90.6602L50.057 84.6035ZM55.8387 91.4326C56.3673 91.4326 56.7729 91.2845 57.0555 90.9883C57.338 90.6921 57.4907 90.266 57.5135 89.71H58.2449C58.2085 90.4665 57.9669 91.0612 57.5203 91.4941C57.0737 91.9225 56.5132 92.1367 55.8387 92.1367C54.9591 92.1367 54.2938 91.8564 53.8426 91.2959C53.396 90.7308 53.1681 89.8945 53.159 88.7871V87.8848C53.159 86.7546 53.3823 85.9023 53.8289 85.3281C54.2801 84.7539 54.9477 84.4668 55.8318 84.4668C56.5656 84.4668 57.1443 84.6992 57.5682 85.1641C57.992 85.6243 58.2176 86.2692 58.2449 87.0986H57.5135C57.4907 86.488 57.3357 86.0163 57.0486 85.6836C56.7615 85.3464 56.3559 85.1777 55.8318 85.1777C55.1756 85.1777 54.6925 85.3988 54.3826 85.8408C54.0773 86.2829 53.9246 86.9619 53.9246 87.8779V88.7188C53.9246 89.6667 54.0796 90.3571 54.3895 90.79C54.6993 91.2184 55.1824 91.4326 55.8387 91.4326ZM61.2922 87.2832H63.0217C63.7235 87.2832 64.2818 87.4928 64.6965 87.9121C65.1112 88.3314 65.3186 88.9033 65.3186 89.6279C65.3186 90.348 65.1112 90.9245 64.6965 91.3574C64.2863 91.7858 63.7281 92 63.0217 92H60.5402V84.6035H61.2922V87.2832ZM61.2922 87.9941V91.2959H63.0354C63.5139 91.2959 63.8876 91.1478 64.1564 90.8516C64.4253 90.5553 64.5598 90.1543 64.5598 89.6484C64.5598 89.1471 64.423 88.7461 64.1496 88.4453C63.8762 88.1445 63.507 87.9941 63.0422 87.9941H61.2922ZM73.1221 88.623H72.2129V92H71.4473V84.6035H72.2129V87.8779H73.1084L75.3506 84.6035H76.2939L73.7441 88.1787L76.5605 92H75.5693L73.1221 88.623ZM82.3148 92C82.2465 91.763 82.2009 91.4212 82.1781 90.9746C81.9503 91.3438 81.6563 91.6309 81.2963 91.8359C80.9408 92.0365 80.5534 92.1367 80.1342 92.1367C79.4962 92.1367 78.9994 91.9567 78.6439 91.5967C78.2885 91.2367 78.1107 90.724 78.1107 90.0586C78.1107 89.334 78.3568 88.7598 78.849 88.3359C79.3458 87.9121 80.0294 87.6979 80.8998 87.6934H82.1713V86.6611C82.1713 86.1325 82.0391 85.7542 81.7748 85.5264C81.515 85.2939 81.1322 85.1777 80.6264 85.1777C80.157 85.1777 79.7719 85.3145 79.4711 85.5879C79.1703 85.8613 79.0199 86.2145 79.0199 86.6475L78.2611 86.6406C78.2611 86.0345 78.489 85.5218 78.9447 85.1025C79.4005 84.6787 79.9724 84.4668 80.6605 84.4668C81.4034 84.4668 81.9662 84.6536 82.349 85.0273C82.7318 85.401 82.9232 85.9456 82.9232 86.6611V90.291C82.9232 91.0156 82.9893 91.5579 83.1215 91.918V92H82.3148ZM80.2299 91.4053C80.6765 91.4053 81.0707 91.2891 81.4125 91.0566C81.7589 90.8242 82.0118 90.5143 82.1713 90.127V88.3291H80.9682C80.2755 88.3382 79.7536 88.4932 79.4027 88.7939C79.0518 89.0902 78.8764 89.4912 78.8764 89.9971C78.8764 90.9359 79.3275 91.4053 80.2299 91.4053ZM89.9764 85.3145H87.7478V92H86.9891V85.3145H84.8426V84.6035H89.9764V85.3145ZM95.7648 92C95.6965 91.763 95.6509 91.4212 95.6281 90.9746C95.4003 91.3438 95.1063 91.6309 94.7463 91.8359C94.3908 92.0365 94.0035 92.1367 93.5842 92.1367C92.9462 92.1367 92.4494 91.9567 92.0939 91.5967C91.7385 91.2367 91.5607 90.724 91.5607 90.0586C91.5607 89.334 91.8068 88.7598 92.299 88.3359C92.7958 87.9121 93.4794 87.6979 94.3498 87.6934H95.6213V86.6611C95.6213 86.1325 95.4891 85.7542 95.2248 85.5264C94.965 85.2939 94.5822 85.1777 94.0764 85.1777C93.607 85.1777 93.2219 85.3145 92.9211 85.5879C92.6203 85.8613 92.4699 86.2145 92.4699 86.6475L91.7111 86.6406C91.7111 86.0345 91.939 85.5218 92.3947 85.1025C92.8505 84.6787 93.4224 84.4668 94.1105 84.4668C94.8534 84.4668 95.4162 84.6536 95.799 85.0273C96.1818 85.401 96.3732 85.9456 96.3732 86.6611V90.291C96.3732 91.0156 96.4393 91.5579 96.5715 91.918V92H95.7648ZM93.6799 91.4053C94.1265 91.4053 94.5207 91.2891 94.8625 91.0566C95.2089 90.8242 95.4618 90.5143 95.6213 90.127V88.3291H94.4182C93.7255 88.3382 93.2036 88.4932 92.8527 88.7939C92.5018 89.0902 92.3264 89.4912 92.3264 89.9971C92.3264 90.9359 92.7775 91.4053 93.6799 91.4053ZM103.426 85.3145H101.198V92H100.439V85.3145H98.2926V84.6035H103.426V85.3145ZM106.248 87.2832H107.978C108.679 87.2832 109.238 87.4928 109.652 87.9121C110.067 88.3314 110.274 88.9033 110.274 89.6279C110.274 90.348 110.067 90.9245 109.652 91.3574C109.242 91.7858 108.684 92 107.978 92H105.496V84.6035H106.248V87.2832ZM106.248 87.9941V91.2959H107.991C108.47 91.2959 108.843 91.1478 109.112 90.8516C109.381 90.5553 109.516 90.1543 109.516 89.6484C109.516 89.1471 109.379 88.7461 109.105 88.4453C108.832 88.1445 108.463 87.9941 107.998 87.9941H106.248ZM114.942 91.4326C115.47 91.4326 115.876 91.2845 116.159 90.9883C116.441 90.6921 116.594 90.266 116.617 89.71H117.348C117.312 90.4665 117.07 91.0612 116.623 91.4941C116.177 91.9225 115.616 92.1367 114.942 92.1367C114.062 92.1367 113.397 91.8564 112.946 91.2959C112.499 90.7308 112.271 89.8945 112.262 88.7871V87.8848C112.262 86.7546 112.485 85.9023 112.932 85.3281C113.383 84.7539 114.051 84.4668 114.935 84.4668C115.669 84.4668 116.247 84.6992 116.671 85.1641C117.095 85.6243 117.321 86.2692 117.348 87.0986H116.617C116.594 86.488 116.439 86.0163 116.152 85.6836C115.865 85.3464 115.459 85.1777 114.935 85.1777C114.279 85.1777 113.796 85.3988 113.486 85.8408C113.18 86.2829 113.028 86.9619 113.028 87.8779V88.7188C113.028 89.6667 113.183 90.3571 113.493 90.79C113.802 91.2184 114.286 91.4326 114.942 91.4326ZM124.135 84.6035V92H123.376V89.0264H121.53L120.006 92H119.172L120.744 88.917C120.311 88.7712 119.981 88.5137 119.753 88.1445C119.525 87.7708 119.411 87.3288 119.411 86.8184C119.411 86.1484 119.614 85.613 120.019 85.2119C120.425 84.8063 120.979 84.6035 121.68 84.6035H124.135ZM120.17 86.832C120.17 87.2695 120.284 87.625 120.512 87.8984C120.744 88.1719 121.063 88.3109 121.469 88.3154H123.376V85.3145H121.66C121.195 85.3145 120.831 85.4535 120.566 85.7314C120.302 86.0094 120.17 86.3763 120.17 86.832Z" fill="#242121"/>
<path d="M311.191 120.711C310.363 121.766 309.395 122.293 308.285 122.293C307.043 122.293 306.055 121.77 305.32 120.723C304.586 119.676 304.219 118.305 304.219 116.609C304.219 114.828 304.617 113.398 305.414 112.32C306.219 111.242 307.312 110.703 308.695 110.703C310.133 110.703 311.254 111.328 312.059 112.578C312.871 113.82 313.277 115.543 313.277 117.746V118.391C313.277 120.281 313.133 121.812 312.844 122.984C312.562 124.156 312.145 125.102 311.59 125.82C311.035 126.539 310.328 127.086 309.469 127.461C308.609 127.828 307.535 128.012 306.246 128.012V126.184H306.609C308.078 126.152 309.191 125.707 309.949 124.848C310.715 123.98 311.129 122.602 311.191 120.711ZM308.637 120.5C309.137 120.5 309.625 120.293 310.102 119.879C310.578 119.457 310.949 118.906 311.215 118.227V117.312C311.215 115.898 310.969 114.746 310.477 113.855C309.984 112.957 309.391 112.508 308.695 112.508C307.945 112.508 307.348 112.879 306.902 113.621C306.465 114.355 306.246 115.312 306.246 116.492C306.246 117.672 306.461 118.637 306.891 119.387C307.32 120.129 307.902 120.5 308.637 120.5ZM323.651 120.711C322.823 121.766 321.854 122.293 320.745 122.293C319.502 122.293 318.514 121.77 317.78 120.723C317.045 119.676 316.678 118.305 316.678 116.609C316.678 114.828 317.077 113.398 317.873 112.32C318.678 111.242 319.772 110.703 321.155 110.703C322.592 110.703 323.713 111.328 324.518 112.578C325.33 113.82 325.737 115.543 325.737 117.746V118.391C325.737 120.281 325.592 121.812 325.303 122.984C325.022 124.156 324.604 125.102 324.049 125.82C323.495 126.539 322.788 127.086 321.928 127.461C321.069 127.828 319.995 128.012 318.705 128.012V126.184H319.069C320.538 126.152 321.651 125.707 322.409 124.848C323.174 123.98 323.588 122.602 323.651 120.711ZM321.096 120.5C321.596 120.5 322.084 120.293 322.561 119.879C323.038 119.457 323.409 118.906 323.674 118.227V117.312C323.674 115.898 323.428 114.746 322.936 113.855C322.444 112.957 321.85 112.508 321.155 112.508C320.405 112.508 319.807 112.879 319.362 113.621C318.924 114.355 318.705 115.312 318.705 116.492C318.705 117.672 318.92 118.637 319.35 119.387C319.78 120.129 320.362 120.5 321.096 120.5ZM329.173 114.219C329.173 113.203 329.446 112.363 329.993 111.699C330.548 111.027 331.266 110.691 332.149 110.691C333.024 110.691 333.739 111.02 334.294 111.676C334.856 112.332 335.138 113.195 335.138 114.266V115.121C335.138 116.145 334.86 116.984 334.305 117.641C333.759 118.297 333.048 118.625 332.173 118.625C331.298 118.625 330.579 118.297 330.016 117.641C329.454 116.984 329.173 116.121 329.173 115.051V114.219ZM330.684 115.121C330.684 115.746 330.821 116.254 331.095 116.645C331.368 117.027 331.727 117.219 332.173 117.219C332.602 117.219 332.95 117.031 333.216 116.656C333.489 116.273 333.626 115.746 333.626 115.074V114.219C333.626 113.586 333.489 113.078 333.216 112.695C332.942 112.305 332.587 112.109 332.149 112.109C331.704 112.109 331.348 112.305 331.083 112.695C330.817 113.086 330.684 113.605 330.684 114.254V115.121ZM336.063 123.816C336.063 122.793 336.341 121.953 336.895 121.297C337.45 120.633 338.165 120.301 339.04 120.301C339.915 120.301 340.634 120.629 341.196 121.285C341.759 121.941 342.04 122.812 342.04 123.898V124.73C342.04 125.762 341.759 126.605 341.196 127.262C340.634 127.918 339.923 128.246 339.063 128.246C338.188 128.246 337.47 127.918 336.907 127.262C336.345 126.605 336.063 125.742 336.063 124.672V123.816ZM337.575 124.73C337.575 125.363 337.712 125.875 337.985 126.266C338.259 126.648 338.618 126.84 339.063 126.84C339.501 126.84 339.852 126.645 340.118 126.254C340.384 125.863 340.516 125.344 340.516 124.695V123.816C340.516 123.184 340.38 122.676 340.106 122.293C339.833 121.91 339.477 121.719 339.04 121.719C338.61 121.719 338.259 121.91 337.985 122.293C337.712 122.668 337.575 123.188 337.575 123.852V124.73ZM332.595 126.711L331.458 125.938L338.454 112.602L339.602 113.375L332.595 126.711Z" fill="#242121"/>
<path d="M285.099 115.233C280.303 118.299 278.645 121.047 268.37 122.546C255.723 124.392 243.135 119.987 236.902 116.375C234.752 115.128 229.536 114.888 227.528 116.375C218.724 122.89 199.227 121.299 190.908 115.011C188.862 113.464 181.945 113.74 181.096 115.51C176.421 125.257 155.431 126.289 141.373 119.224C142.908 117.322 134.904 116.027 132.722 117.889C120.921 127.96 97.8831 126.835 84.5116 117.847C82.1909 116.288 76.9919 116.835 75.4926 118.306C64.6255 128.976 47.6995 123.9 38.2013 116.556C36.3515 115.125 31.0756 115.62 29.9604 116.975C24.7697 123.283 16.2182 124.461 1.8116 126.093C-0.901436 126.401 -0.482377 128.233 2.50113 128.078C19.0081 127.222 28.0237 126.079 34.7704 121.296C48.6311 129.718 67.9813 131.438 80.9654 122.576C97.8013 130.777 124.846 131.712 138.246 121.955C153.131 129.833 178.092 129.446 188.088 120.861C200.983 126.779 219.753 127.611 232.738 120.987C252.064 128.548 291.587 130.24 292.996 116.067C293.172 114.376 287.221 113.876 285.099 115.233Z" fill="#00B2A0"/>
<path d="M7.41016 144.275H8.33984L8.33301 147.413H7.54688V145H1.30566V147.413H0.519531V144.275H1.10059C1.49251 143.797 1.82064 143.052 2.08496 142.04C2.35384 141.024 2.51335 139.889 2.56348 138.636L2.71387 135.047H7.41016V144.275ZM1.96191 144.275H6.63086V135.785H3.46582L3.34961 138.643C3.29492 139.85 3.14453 140.949 2.89844 141.938C2.6569 142.922 2.34473 143.701 1.96191 144.275ZM10.1703 140.926C10.1703 139.859 10.4118 139.016 10.8949 138.396C11.378 137.777 12.0365 137.467 12.8705 137.467C13.709 137.467 14.3676 137.772 14.8461 138.383C15.3292 138.993 15.573 139.834 15.5775 140.905V141.691C15.5775 142.776 15.3337 143.621 14.8461 144.228C14.363 144.834 13.709 145.137 12.8842 145.137C12.0593 145.137 11.4053 144.84 10.9223 144.248C10.4392 143.656 10.1885 142.84 10.1703 141.801V140.926ZM10.9359 141.691C10.9359 142.544 11.1068 143.214 11.4486 143.701C11.795 144.189 12.2735 144.433 12.8842 144.433C13.5085 144.433 13.9848 144.198 14.3129 143.729C14.6456 143.259 14.8142 142.587 14.8188 141.712V140.926C14.8188 140.074 14.6456 139.404 14.2992 138.916C13.9529 138.424 13.4766 138.178 12.8705 138.178C12.2826 138.178 11.8155 138.417 11.4691 138.896C11.1228 139.374 10.9451 140.033 10.9359 140.871V141.691ZM18.0164 145V137.604H20.327C21.1154 137.604 21.7238 137.77 22.1521 138.103C22.5805 138.435 22.7947 138.927 22.7947 139.579C22.7947 139.948 22.699 140.279 22.5076 140.57C22.3162 140.857 22.0382 141.067 21.6736 141.199C22.0929 141.29 22.4233 141.5 22.6648 141.828C22.9109 142.152 23.034 142.525 23.034 142.949C23.034 143.601 22.8335 144.104 22.4324 144.46C22.0314 144.811 21.4731 144.991 20.7576 145H18.0164ZM18.7684 141.603V144.303H20.7166C21.2225 144.303 21.6098 144.187 21.8787 143.954C22.1476 143.717 22.282 143.378 22.282 142.936C22.282 142.525 22.1476 142.202 21.8787 141.965C21.6098 141.723 21.2225 141.603 20.7166 141.603H18.7684ZM18.7684 140.905H20.3748C21.4822 140.905 22.0359 140.472 22.0359 139.606C22.0359 138.768 21.5005 138.337 20.4295 138.314H18.7684V140.905ZM25.1242 140.926C25.1242 139.859 25.3658 139.016 25.8488 138.396C26.3319 137.777 26.9904 137.467 27.8244 137.467C28.663 137.467 29.3215 137.772 29.8 138.383C30.2831 138.993 30.5269 139.834 30.5314 140.905V141.691C30.5314 142.776 30.2876 143.621 29.8 144.228C29.3169 144.834 28.663 145.137 27.8381 145.137C27.0132 145.137 26.3592 144.84 25.8762 144.248C25.3931 143.656 25.1424 142.84 25.1242 141.801V140.926ZM25.8898 141.691C25.8898 142.544 26.0607 143.214 26.4025 143.701C26.7489 144.189 27.2274 144.433 27.8381 144.433C28.4624 144.433 28.9387 144.198 29.2668 143.729C29.5995 143.259 29.7681 142.587 29.7727 141.712V140.926C29.7727 140.074 29.5995 139.404 29.2531 138.916C28.9068 138.424 28.4305 138.178 27.8244 138.178C27.2365 138.178 26.7694 138.417 26.423 138.896C26.0767 139.374 25.899 140.033 25.8898 140.871V141.691ZM37.6187 137.604V145H36.86V138.321H34.399L34.2896 141.062C34.2304 142.512 34.0663 143.526 33.7975 144.104C33.5331 144.679 33.1025 144.977 32.5055 145H32.1568V144.255L32.3756 144.248C32.7675 144.23 33.0455 144.002 33.2096 143.564C33.3736 143.122 33.483 142.345 33.5377 141.233L33.6676 137.604H37.6187ZM41.1445 140.283H42.874C43.5758 140.283 44.1341 140.493 44.5488 140.912C44.9635 141.331 45.1709 141.903 45.1709 142.628C45.1709 143.348 44.9635 143.924 44.5488 144.357C44.1387 144.786 43.5804 145 42.874 145H40.3926V137.604H41.1445V140.283ZM41.1445 140.994V144.296H42.8877C43.3662 144.296 43.7399 144.148 44.0088 143.852C44.2777 143.555 44.4121 143.154 44.4121 142.648C44.4121 142.147 44.2754 141.746 44.002 141.445C43.7285 141.145 43.3594 140.994 42.8945 140.994H41.1445ZM52.3334 145H51.5746V141.616H48.3207V145H47.5551V137.604H48.3207V140.912H51.5746V137.604H52.3334V145ZM55.8523 140.283H57.5818C58.2837 140.283 58.8419 140.493 59.2566 140.912C59.6714 141.331 59.8787 141.903 59.8787 142.628C59.8787 143.348 59.6714 143.924 59.2566 144.357C58.8465 144.786 58.2882 145 57.5818 145H55.1004V137.604H55.8523V140.283ZM55.8523 140.994V144.296H57.5955C58.074 144.296 58.4477 144.148 58.7166 143.852C58.9855 143.555 59.1199 143.154 59.1199 142.648C59.1199 142.147 58.9832 141.746 58.7098 141.445C58.4363 141.145 58.0672 140.994 57.6023 140.994H55.8523ZM62.0047 145H61.2459V137.604H62.0047V145ZM66.7609 140.591L68.3811 137.604H69.2766L67.1779 141.233L69.3586 145H68.4699L66.7678 141.89L65.0588 145H64.1701L66.3439 141.233L64.2521 137.604H65.1408L66.7609 140.591ZM76.8682 141.623H75.959V145H75.1934V137.604H75.959V140.878H76.8545L79.0967 137.604H80.04L77.4902 141.179L80.3066 145H79.3154L76.8682 141.623ZM86.9906 137.604V145H86.2318V138.321H83.7709L83.6615 141.062C83.6023 142.512 83.4382 143.526 83.1693 144.104C82.905 144.679 82.4743 144.977 81.8773 145H81.5287V144.255L81.7475 144.248C82.1394 144.23 82.4174 144.002 82.5814 143.564C82.7455 143.122 82.8549 142.345 82.9096 141.233L83.0395 137.604H86.9906ZM93.7566 137.604H94.5154V145H93.7566V138.95L90.4959 145H89.7371V137.604H90.4959V143.66L93.7566 137.604ZM99.6408 145.137C98.7704 145.137 98.0891 144.852 97.5969 144.282C97.1047 143.713 96.854 142.901 96.8449 141.849V140.946C96.8449 139.862 97.0819 139.012 97.5559 138.396C98.0298 137.777 98.6815 137.467 99.5109 137.467C100.313 137.467 100.924 137.729 101.343 138.253C101.767 138.777 101.983 139.579 101.992 140.659V141.37H97.5969V141.787C97.5969 142.635 97.7769 143.289 98.1369 143.749C98.5015 144.209 99.0142 144.439 99.675 144.439C100.404 144.439 100.994 144.173 101.446 143.64L101.842 144.146C101.359 144.806 100.625 145.137 99.6408 145.137ZM99.5109 138.178C98.9139 138.178 98.4536 138.39 98.1301 138.813C97.8111 139.233 97.6356 139.848 97.6037 140.659H101.234V140.461C101.197 138.939 100.623 138.178 99.5109 138.178ZM109.046 145H108.287V141.616H105.033V145H104.267V137.604H105.033V140.912H108.287V137.604H109.046V145ZM116.222 138.314H113.993V145H113.234V138.314H111.088V137.604H116.222V138.314ZM117.635 140.926C117.635 139.859 117.877 139.016 118.36 138.396C118.843 137.777 119.501 137.467 120.335 137.467C121.174 137.467 121.832 137.772 122.311 138.383C122.794 138.993 123.038 139.834 123.042 140.905V141.691C123.042 142.776 122.799 143.621 122.311 144.228C121.828 144.834 121.174 145.137 120.349 145.137C119.524 145.137 118.87 144.84 118.387 144.248C117.904 143.656 117.653 142.84 117.635 141.801V140.926ZM118.401 141.691C118.401 142.544 118.572 143.214 118.913 143.701C119.26 144.189 119.738 144.433 120.349 144.433C120.973 144.433 121.45 144.198 121.778 143.729C122.11 143.259 122.279 142.587 122.284 141.712V140.926C122.284 140.074 122.11 139.404 121.764 138.916C121.418 138.424 120.941 138.178 120.335 138.178C119.747 138.178 119.28 138.417 118.934 138.896C118.588 139.374 118.41 140.033 118.401 140.871V141.691ZM125.481 145V137.604H127.792C128.58 137.604 129.189 137.77 129.617 138.103C130.045 138.435 130.26 138.927 130.26 139.579C130.26 139.948 130.164 140.279 129.972 140.57C129.781 140.857 129.503 141.067 129.138 141.199C129.558 141.29 129.888 141.5 130.13 141.828C130.376 142.152 130.499 142.525 130.499 142.949C130.499 143.601 130.298 144.104 129.897 144.46C129.496 144.811 128.938 144.991 128.222 145H125.481ZM126.233 141.603V144.303H128.181C128.687 144.303 129.075 144.187 129.344 143.954C129.612 143.717 129.747 143.378 129.747 142.936C129.747 142.525 129.612 142.202 129.344 141.965C129.075 141.723 128.687 141.603 128.181 141.603H126.233ZM126.233 140.905H127.84C128.947 140.905 129.501 140.472 129.501 139.606C129.501 138.768 128.965 138.337 127.894 138.314H126.233V140.905Z" fill="#242121"/>
</svg>
