<svg width="55" height="50" viewBox="0 0 55 50" fill="none" xmlns="http://www.w3.org/2000/svg">
<path d="M54.3614 35.771C52.2234 35.3792 50.6115 36.7832 48.5929 34.6911C48.0654 34.1448 47.3035 34.4527 47.0617 35.118C45.3292 39.8932 41.7252 37.5863 40.0738 34.2416C39.7539 33.5941 38.8481 33.6503 38.515 34.2416C37.3736 37.1904 35.1757 37.5536 31.9209 35.3311C31.4039 34.8535 30.5559 35.0142 30.3614 35.7658C28.9445 41.2476 23.9927 39.7416 22.4671 35.2371C22.3904 35.0101 22.2251 34.9001 22.0535 34.8804C21.7064 34.4216 20.9203 34.2841 20.6494 34.9275C18.6979 39.56 15.0758 38.8509 12.8213 34.9337C12.4144 34.2268 11.5742 34.4719 11.3074 35.1427C9.41141 39.9083 3.88688 39.7989 3.98525 34.0702C3.99606 33.4357 3.09666 33.3111 2.94457 33.9216C1.16504 41.0611 9.4371 42.2992 12.3026 37.0585C15.2623 40.6128 19.7006 41.3422 21.8173 36.5587C23.6231 41.805 29.5222 42.8368 31.7148 37.6168C34.4991 39.5812 37.1514 39.2726 39.2439 36.4816C41.7958 40.3295 46.343 41.747 48.3617 36.999C50.2142 38.3228 51.4431 37.3967 54.1235 37.6236C55.1239 37.7087 55.3525 35.9529 54.3614 35.771Z" fill="#00B2A0"/>
<path d="M51.0118 43.4678C50.1731 44.9229 49.8832 46.227 48.0868 46.9383C45.8755 47.8144 43.6744 45.7239 42.5847 44.0098C42.2087 43.4181 41.2968 43.3044 40.9456 44.0098C39.4063 47.1017 35.9973 46.3466 34.5427 43.3626C34.1851 42.6286 32.9757 42.7596 32.8271 43.5994C32.0097 48.2251 28.3397 48.7147 25.8818 45.3619C26.1501 44.4593 24.7506 43.8448 24.3691 44.7284C22.3058 49.5079 18.2776 48.9739 15.9397 44.7087C15.5339 43.9684 14.6249 44.228 14.3627 44.9263C12.4626 49.9898 9.50319 47.5811 7.84247 44.0958C7.51902 43.4166 6.59657 43.6518 6.40157 44.2946C5.49399 47.2882 3.99879 47.8471 1.47984 48.6215C1.00547 48.7677 1.07874 49.6371 1.6004 49.5637C4.48659 49.1574 6.06294 48.6151 7.24258 46.3451C9.66608 50.3418 13.0494 51.1582 15.3196 46.9527C18.2633 50.8444 22.9921 51.288 25.335 46.658C27.9375 50.3967 32.3019 50.2127 34.0496 46.1385C36.3044 48.9474 39.5861 49.342 41.8567 46.1987C45.2356 49.7866 52.1462 50.5897 52.3926 43.8636C52.4232 43.0614 51.3828 42.8237 51.0118 43.4678Z" fill="#00B2A0"/>
<path d="M15.5216 7.50507C14.9559 7.67895 14.7328 8.12751 14.7501 8.5804C10.7415 9.20593 8.14631 13.383 7.83659 17.5845C7.41301 23.3329 12.0364 26.7097 17.0492 26.2809C22.1747 25.8428 25.509 21.0025 25.3583 15.8007C25.2077 10.605 20.5473 5.95773 15.5216 7.50507ZM16.3562 23.653C12.6772 23.9717 10.2972 21.3478 10.3675 17.5845C10.4414 13.6401 13.303 11.0391 16.6204 9.99918C16.6811 9.98006 16.7249 9.94738 16.7742 9.9184C20.0081 10.4511 22.4538 11.7506 22.7973 15.8001C23.1541 20.0006 20.2337 23.3163 16.3562 23.653Z" fill="#00B2A0"/>
<path d="M10.8569 7.33034C10.2535 6.63699 9.58498 6.0278 8.90043 5.42662C8.22172 4.83038 7.50186 3.67674 6.54495 3.77108C6.03818 3.82102 5.69489 4.16045 5.65957 4.70613C5.59242 5.7417 6.55925 6.25038 7.26248 6.77849C8.06642 7.38183 8.9016 7.92165 9.64774 8.60761C10.4756 9.3691 11.6085 8.19388 10.8569 7.33034Z" fill="#00B2A0"/>
<path d="M5.30955 10.4478C5.63124 10.4888 5.34692 10.4395 5.26197 10.4114C5.13148 10.3679 5.00362 10.3158 4.87605 10.264C4.73155 10.2058 4.58852 10.1429 4.44577 10.08C4.43613 10.0757 4.43088 10.0735 4.41658 10.0667C4.28054 9.7908 4.04672 9.56852 3.74575 9.46894C3.20833 9.29044 2.39096 8.86407 1.81005 9.05675C1.48164 9.16589 1.13747 9.45291 1.07354 9.83458C1.07354 9.83458 1.07325 9.83612 1.07325 9.83674C1.01253 10.1984 1.0388 10.6688 1.34444 10.9204C1.51463 11.0597 1.71371 11.1584 1.92127 11.2435C1.75312 11.2429 1.88886 11.2512 2.04095 11.2885C2.14867 11.3277 2.25493 11.3677 2.36586 11.3989C2.63325 11.4938 2.90036 11.5903 3.16629 11.6887C3.31897 11.7457 3.47631 11.7506 3.6284 11.7217C4.17516 11.8752 4.77388 12.0491 5.30984 12.0145C6.28426 11.9516 6.24252 10.5671 5.30955 10.4478Z" fill="#00B2A0"/>
<path d="M3.63998 19.2578C3.23071 19.6201 2.75313 19.904 2.28782 20.1762C2.04728 20.3171 1.79856 20.463 1.5408 20.5656C1.38638 20.627 1.14058 20.5755 1.48037 20.6412C1.31164 20.6088 1.15167 20.6054 0.983821 20.5863C-0.431102 20.425 -0.302366 23.1232 1.25735 22.7212C1.83184 22.5732 2.41889 21.9943 2.90726 21.6234C3.47388 21.1933 4.03961 20.7232 4.50668 20.1732C5.0406 19.5449 4.24162 18.7248 3.63998 19.2578Z" fill="#00B2A0"/>
<path d="M7.24527 24.6028C6.76594 25.3797 6.32894 26.1849 5.87296 26.9769C5.37875 27.8349 4.54153 28.4746 4.43177 29.5013C4.36171 30.1567 5.04129 30.4813 5.5431 30.3953C6.56919 30.2196 7.06982 28.8403 7.44494 27.9468C7.83202 27.025 8.06993 26.0582 8.37995 25.1074C8.61815 24.3752 7.61396 24.0047 7.24527 24.6028Z" fill="#00B2A0"/>
<path d="M16.9431 27.4016C16.8421 26.8531 16.0391 26.8793 15.9214 27.4016C15.6126 28.7744 15.2509 30.1355 14.9476 31.5096C14.8743 31.8413 14.9374 32.2252 15.1864 32.4638C15.1455 32.4061 15.1502 32.4175 15.2001 32.4974C15.497 33.0098 16.1208 32.9512 16.4285 32.4974C16.1474 32.9117 16.6276 32.2967 16.6448 32.2652C16.7581 32.0608 16.7677 31.8463 16.7797 31.6169C16.8048 31.1421 16.8576 30.6686 16.9005 30.1953C16.9849 29.2726 17.1124 28.32 16.9431 27.4016Z" fill="#00B2A0"/>
<path d="M27.6073 28.2131C26.8732 27.1007 25.7073 26.3867 25.0399 25.238C24.5831 24.4512 23.5368 25.1366 23.8898 25.948C24.1957 26.6512 24.6631 27.2352 25.1456 27.8107C25.3759 28.0854 25.6118 28.3536 25.8144 28.6521C26.0908 29.0593 26.2044 29.5168 26.7433 29.5961C27.0533 29.6417 27.4071 29.577 27.5636 29.2431C27.5782 29.2123 27.5927 29.1814 27.6071 29.1503C27.7407 28.866 27.7921 28.4933 27.6073 28.2131Z" fill="#00B2A0"/>
<path d="M31.8792 19.908C30.6435 19.9767 29.4075 20.0427 28.1718 20.1078C27.0599 20.1663 27.0599 21.8712 28.1718 21.9301C29.4078 21.9955 30.6435 22.0614 31.8792 22.1296C33.236 22.2051 33.236 19.8331 31.8792 19.908Z" fill="#00B2A0"/>
<path d="M31.8797 7.10188C30.7587 7.07722 29.8526 8.49907 29.1809 9.325C28.459 10.2123 27.8247 11.1738 27.0887 12.0494C26.5265 12.7184 27.3932 13.6448 28.02 13.0329C28.762 12.3078 29.4358 11.5108 30.148 10.7539C30.5503 10.3266 30.9666 9.89627 31.4231 9.5334C31.9845 9.08792 32.4256 8.94333 32.6752 8.20434C32.8605 7.65589 32.3835 7.11298 31.8797 7.10188Z" fill="#00B2A0"/>
<path d="M26.4932 1.29434C25.8297 1.74384 25.3871 2.47388 24.9312 3.14134C24.3996 3.91948 23.8943 4.70131 23.2795 5.41101C22.5833 6.21473 23.6663 7.37115 24.4139 6.60904C24.9942 6.01712 25.508 5.37185 26.0115 4.70717C26.5522 3.99378 27.2493 3.3405 27.6942 2.56236C28.1408 1.78176 27.2417 0.787505 26.4932 1.29434Z" fill="#00B2A0"/>
<path d="M18.2032 0.226597C17.8797 -0.0755323 17.4565 -0.0755323 17.133 0.226597C16.4981 0.819757 16.7909 1.85532 16.8437 2.64486C16.9045 3.55064 16.9696 4.45548 17.0475 5.36002C17.1202 6.20352 18.216 6.20352 18.2887 5.36002C18.3667 4.45517 18.4318 3.55094 18.4925 2.64486C18.5453 1.85563 18.8381 0.819449 18.2032 0.226597Z" fill="#00B2A0"/>
</svg>
